<svg fill="#000000" xmlns="http://www.w3.org/2000/svg"  viewBox="0 0 26 26" width="26px" height="26px"><path d="M 4.875 0 C 2.183594 0 0 2.183594 0 4.875 L 0 13.34375 L 5.0625 14.8125 C 5.992188 13.664063 7.40625 12.9375 9 12.9375 C 9.050781 12.9375 9.105469 12.9375 9.15625 12.9375 L 11.9375 9.0625 C 11.9375 9.039063 11.9375 9.023438 11.9375 9 C 11.9375 5.65625 14.652344 2.9375 18 2.9375 C 21.347656 2.9375 24.0625 5.65625 24.0625 9 C 24.0625 12.347656 21.347656 15.0625 18 15.0625 C 17.96875 15.0625 17.9375 15.0625 17.90625 15.0625 L 14.0625 17.84375 C 14.066406 17.894531 14.0625 17.949219 14.0625 18 C 14.0625 20.800781 11.800781 23.0625 9 23.0625 C 6.40625 23.0625 4.300781 21.109375 4 18.59375 L 0 17.4375 L 0 21.125 C 0 23.816406 2.183594 26 4.875 26 L 21.125 26 C 23.816406 26 26 23.816406 26 21.125 L 26 4.875 C 26 2.183594 23.816406 0 21.125 0 Z M 18 4.78125 C 15.675781 4.78125 13.78125 6.671875 13.78125 9 C 13.78125 11.328125 15.675781 13.21875 18 13.21875 C 20.324219 13.21875 22.21875 11.328125 22.21875 9 C 22.21875 6.671875 20.324219 4.78125 18 4.78125 Z M 18 6.0625 C 19.617188 6.0625 20.9375 7.382813 20.9375 9 C 20.9375 10.617188 19.617188 11.9375 18 11.9375 C 16.386719 11.9375 15.0625 10.617188 15.0625 9 C 15.0625 7.382813 16.386719 6.0625 18 6.0625 Z M 9 14.5625 C 8.175781 14.5625 7.4375 14.859375 6.84375 15.34375 L 9.375 16.0625 C 9.394531 16.066406 9.417969 16.089844 9.4375 16.09375 L 9.5 16.09375 C 10.351563 16.3125 10.96875 17.085938 10.96875 18 C 10.96875 19.085938 10.085938 19.96875 9 19.96875 C 8.792969 19.96875 8.59375 19.9375 8.40625 19.875 L 5.75 19.125 C 6.214844 20.480469 7.488281 21.4375 9 21.4375 C 10.90625 21.4375 12.4375 19.90625 12.4375 18 C 12.4375 16.09375 10.90625 14.5625 9 14.5625 Z"/></svg>